<svg width="36" height="36" viewBox="0 0 36 36" fill="none" xmlns="http://www.w3.org/2000/svg" class="size-9"><path d="M18 36C27.9411 36 36 27.9411 36 18C36 8.05888 27.9411 0 18 0C8.05888 0 0 8.05888 0 18C0 27.9411 8.05888 36 18 36Z" fill="white"></path><path d="M24.1502 9.14453C22.4755 9.14453 21.0039 9.91098 21.0039 12.5514V13.6704C21.6509 11.9189 22.7337 10.3612 24.1502 9.14453Z" fill="#046937"></path><path d="M24.2532 21.0831C24.6149 20.5816 24.8057 19.9769 24.7974 19.3586V9.39481C24.8013 9.33227 24.8013 9.26957 24.7974 9.20703H24.7246C22.9613 10.9525 21.6817 13.1261 21.0112 15.5149V20.217C21.0117 20.6076 20.9353 20.9944 20.7863 21.3554C20.6373 21.7163 20.4187 22.0445 20.1429 22.321C19.8671 22.5975 19.5395 22.8169 19.1789 22.9668C18.8183 23.1168 18.4317 23.1942 18.0412 23.1947H17.976C17.5855 23.1942 17.1989 23.1168 16.8383 22.9668C16.4777 22.8169 16.1501 22.5975 15.8743 22.321C15.5986 22.0445 15.3799 21.7163 15.231 21.3554C15.082 20.9944 15.0055 20.6076 15.006 20.217V15.5149C14.3356 13.1298 13.0605 10.9583 11.3041 9.21086H11.2275C11.2237 9.27467 11.2237 9.33865 11.2275 9.40247V19.3471C11.2191 19.9655 11.4099 20.5701 11.7717 21.0716L16.4125 26.3869C16.8284 26.7876 17.3698 27.0326 17.9454 27.0806H18.0412C18.6171 27.0312 19.1585 26.7849 19.5741 26.3831L24.2417 21.0831H24.2532Z" fill="#046937"></path><path d="M24.7982 20.8828C24.2962 21.5726 21.7938 25.0408 20.8242 26.4664C21.9229 25.9727 22.8703 25.1951 23.5688 24.2138C24.2672 23.2324 24.6916 22.0826 24.7982 20.8828Z" fill="#046937"></path><path d="M14.9998 13.6705V12.5515C14.9998 9.92255 13.5282 9.14844 11.8535 9.14844C13.2702 10.3633 14.3531 11.9198 14.9998 13.6705Z" fill="#046937"></path><path d="M15.1791 26.4625C14.2095 25.0331 11.7071 21.5687 11.2051 20.8789C11.3125 22.0785 11.7372 23.2279 12.4355 24.2092C13.1339 25.1904 14.0808 25.9681 15.1791 26.4625Z" fill="#046937"></path><g style="mix-blend-mode:luminosity" opacity="0.5"><path d="M16.4139 25.7431C16.8307 26.1424 17.3716 26.3872 17.9468 26.4367H18.0426C18.6186 26.3906 19.1606 26.1453 19.5755 25.7431L24.2431 20.4393C24.6039 19.9372 24.7946 19.3329 24.7873 18.7147V9.60552C24.7911 9.54171 24.7911 9.47772 24.7873 9.41391H24.7107C22.9567 11.158 21.6829 13.3255 21.0126 15.7064V20.4124C21.0131 20.803 20.9366 21.1898 20.7877 21.5507C20.6387 21.9117 20.42 22.2399 20.1443 22.5164C19.8685 22.7929 19.5409 23.0123 19.1803 23.1622C18.8197 23.3121 18.4331 23.3896 18.0426 23.3901H17.9774C17.5869 23.3896 17.2003 23.3121 16.8397 23.1622C16.4791 23.0123 16.1515 22.7929 15.8757 22.5164C15.6 22.2399 15.3813 21.9117 15.2324 21.5507C15.0834 21.1898 15.0069 20.803 15.0074 20.4124V15.7103C14.338 13.3247 13.0627 11.153 11.3055 9.40625H11.2289C11.2289 9.46757 11.2289 9.52888 11.2289 9.59403V18.7033C11.2192 19.3218 11.4101 19.9268 11.7731 20.4278L16.4139 25.7431Z" fill="#046937"></path></g><g style="mix-blend-mode:luminosity" opacity="0.5"><path d="M24.6755 21.4648C24.1198 22.2313 22.5869 24.3582 21.5254 25.8681C22.3244 25.3894 23.0163 24.7515 23.5582 23.994C24.1002 23.2365 24.4805 22.3756 24.6755 21.4648Z" fill="#046937"></path></g><g style="mix-blend-mode:luminosity" opacity="0.5"><path d="M14.4978 25.8643C13.4362 24.3544 11.9033 22.2313 11.3477 21.4648C11.5432 22.3749 11.9237 23.235 12.4656 23.9919C13.0075 24.7487 13.6992 25.386 14.4978 25.8643Z" fill="#046937"></path></g></svg>